<?xml version="1.0" standalone="no"?>
<svg viewBox="0 0 200 200" xmlns="http://www.w3.org/2000/svg">
  <path fill="#9FAA99" d="M43.4,-68.5C55.9,-59.4,65.7,-46.9,72.1,-32.9C78.5,-18.9,81.5,-3.4,78.9,11C76.3,25.4,68.1,38.7,58.4,51.5C48.7,64.4,37.4,76.8,23,83.2C8.6,89.6,-9,90,-25,85.3C-41,80.5,-55.5,70.5,-66.9,57.7C-78.2,44.9,-86.5,29.3,-89.8,12.4C-93.1,-4.5,-91.3,-22.7,-83.4,-37.2C-75.4,-51.7,-61.3,-62.6,-46.4,-70.6C-31.4,-78.6,-15.7,-83.8,-0.2,-83.5C15.4,-83.3,30.8,-77.6,43.4,-68.5Z" transform="translate(100 100)" />
</svg>
